<svg id="레이어_1" data-name="레이어 1" xmlns="http://www.w3.org/2000/svg" xmlns:xlink="http://www.w3.org/1999/xlink" viewBox="0 0 107.99 20.85"><defs><style>.cls-1{fill:url(#linear-gradient);}.cls-2{fill:url(#linear-gradient-2);}.cls-3{fill:url(#linear-gradient-3);}.cls-4{fill:url(#linear-gradient-4);}.cls-5{fill:#fff;}</style><linearGradient id="linear-gradient" y1="20" x2="4" y2="20" gradientTransform="matrix(1, 0, 0, -1, 0, 22)" gradientUnits="userSpaceOnUse"><stop offset="0" stop-color="#2581c4"/><stop offset="1" stop-color="#2072ad"/></linearGradient><linearGradient id="linear-gradient-2" y1="11" y2="11" xlink:href="#linear-gradient"/><linearGradient id="linear-gradient-3" x1="11" y1="12.5" x2="15" y2="12.5" gradientTransform="matrix(1, 0, 0, -1, 0, 22)" gradientUnits="userSpaceOnUse"><stop offset="0" stop-color="#bcd5f0"/><stop offset="1" stop-color="#94b4d6"/></linearGradient><linearGradient id="linear-gradient-4" x1="4" y1="12.5" x2="11" y2="12.5" gradientTransform="matrix(1, 0, 0, -1, 0, 22)" gradientUnits="userSpaceOnUse"><stop offset="0" stop-color="#69acdf"/><stop offset="1" stop-color="#4d8fc0"/></linearGradient></defs><circle class="cls-1" cx="2" cy="2" r="2"/><rect class="cls-2" y="5" width="4" height="12"/><rect class="cls-3" x="11" y="2" width="4" height="15"/><polygon class="cls-4" points="11 2 11 8 4 17 4 11 11 2"/><path class="cls-5" d="M33.13,7.51a3.78,3.78,0,0,1,1.21.19,2.78,2.78,0,0,1,1,.6,2.9,2.9,0,0,1,.73,1.08A4.2,4.2,0,0,1,36.38,11v6.09H34.24V11.43c0-1.37-.59-2-1.78-2a2.92,2.92,0,0,0-.6.08,1.66,1.66,0,0,0-.66.31,1.74,1.74,0,0,0-.53.65,2.4,2.4,0,0,0-.22,1.12v5.53H28.31V7.72h2V8.79h0a2.61,2.61,0,0,1,1.21-1A4.24,4.24,0,0,1,33.13,7.51Z"/><path class="cls-5" d="M43.63,15.38a2.86,2.86,0,0,0,1.16-.19.73.73,0,0,0,.43-.74v-.1a1.16,1.16,0,0,0-.06-.4.58.58,0,0,0-.26-.28,2.54,2.54,0,0,0-.59-.22c-.25-.07-.6-.15-1-.24a9,9,0,0,1-1.45-.4,3,3,0,0,1-1-.57,2.15,2.15,0,0,1-.56-.81,3.25,3.25,0,0,1-.18-1.14v-.17a2.39,2.39,0,0,1,.19-.94,2.27,2.27,0,0,1,.63-.84A3.22,3.22,0,0,1,42,7.74a5.39,5.39,0,0,1,1.67-.23,10.53,10.53,0,0,1,1.72.15,4.26,4.26,0,0,1,1.72.7L46.23,9.9a3.25,3.25,0,0,0-1.06-.46A5.32,5.32,0,0,0,44,9.3a2.84,2.84,0,0,0-1.37.23.67.67,0,0,0-.37.6v.1a.94.94,0,0,0,.07.41.62.62,0,0,0,.25.26,2.19,2.19,0,0,0,.53.2c.23.06.52.12.88.19a14,14,0,0,1,1.53.39,3.34,3.34,0,0,1,1.07.53,2,2,0,0,1,.62.83,3.24,3.24,0,0,1,.2,1.25v.19a2.18,2.18,0,0,1-.25,1,2.36,2.36,0,0,1-.72.86,3.57,3.57,0,0,1-1.17.59,5.11,5.11,0,0,1-1.58.22,7.57,7.57,0,0,1-2.21-.31A4.86,4.86,0,0,1,39.73,16l1-1.63a7.1,7.1,0,0,0,1.34.7A4.19,4.19,0,0,0,43.63,15.38Z"/><path class="cls-5" d="M52.05,4h0a1.12,1.12,0,0,1,1.12,1.12v.07a1.12,1.12,0,0,1-1.12,1.12h0a1.12,1.12,0,0,1-1.12-1.12V5.16A1.12,1.12,0,0,1,52.05,4ZM51,7.72h2.14v9.34H51Z"/><path class="cls-5" d="M63.14,15.81h0a2.06,2.06,0,0,1-1.07,1A4.22,4.22,0,0,1,60.5,17a3.37,3.37,0,0,1-2.69-1,4.43,4.43,0,0,1-.89-2.94V11.57a5.3,5.3,0,0,1,.26-1.69,3.76,3.76,0,0,1,.75-1.28,3.36,3.36,0,0,1,1.18-.81,4,4,0,0,1,1.53-.28,4.13,4.13,0,0,1,1,.1,4,4,0,0,1,.74.25,2.33,2.33,0,0,1,.52.33,1.82,1.82,0,0,1,.31.33h0v-.8h2V17a3.72,3.72,0,0,1-1.07,2.91,5,5,0,0,1-3.37,1,5.69,5.69,0,0,1-1.76-.29,4.92,4.92,0,0,1-1.45-.73l1-1.66a2,2,0,0,0,.39.26,4.13,4.13,0,0,0,.56.26,4.32,4.32,0,0,0,.64.19,3.16,3.16,0,0,0,.68.08,2.65,2.65,0,0,0,1.72-.48A1.86,1.86,0,0,0,63.15,17V15.81ZM59,12.72a3.07,3.07,0,0,0,.48,1.84,1.63,1.63,0,0,0,1.42.65,2.35,2.35,0,0,0,.94-.18,2,2,0,0,0,.7-.49,2.14,2.14,0,0,0,.43-.73,2.6,2.6,0,0,0,.15-.89V11.19a1.71,1.71,0,0,0-.13-.65,1.52,1.52,0,0,0-.39-.59A2,2,0,0,0,62,9.52a2.53,2.53,0,0,0-1-.17,1.73,1.73,0,0,0-1.5.66A3.06,3.06,0,0,0,59,11.84Z"/><path class="cls-5" d="M74.3,7.51a3.78,3.78,0,0,1,1.21.19,2.78,2.78,0,0,1,1,.6,2.9,2.9,0,0,1,.73,1.08A4.2,4.2,0,0,1,77.55,11v6.09H75.41V11.43c0-1.37-.59-2-1.78-2a2.92,2.92,0,0,0-.6.08,1.66,1.66,0,0,0-.66.31,1.82,1.82,0,0,0-.53.65,2.4,2.4,0,0,0-.22,1.12v5.53H69.48V4.24h2V8.78h0a2.61,2.61,0,0,1,1.21-1A4.49,4.49,0,0,1,74.3,7.51Z"/><path class="cls-5" d="M82.31,9.48H80.82V7.72h1.49V5.33h2.14V7.72h2.36V9.48H84.45V14.4c0,.4.08.66.25.78a1.11,1.11,0,0,0,.67.19,3.47,3.47,0,0,0,.64-.06,3.79,3.79,0,0,0,.69-.21L87,16.81a4.28,4.28,0,0,1-.79.26,4.81,4.81,0,0,1-1.13.13A4,4,0,0,1,83.78,17a2,2,0,0,1-.86-.54,2.14,2.14,0,0,1-.46-.87,4.66,4.66,0,0,1-.14-1.18V9.48Z"/><path class="cls-5" d="M98,16.2a5.54,5.54,0,0,1-1.59.73,8,8,0,0,1-2.24.27A6,6,0,0,1,92.62,17a3.74,3.74,0,0,1-1.37-.71,3.6,3.6,0,0,1-1-1.34,5.33,5.33,0,0,1-.36-2.09v-1a5.26,5.26,0,0,1,.33-2,3.66,3.66,0,0,1,.91-1.36,3.52,3.52,0,0,1,1.35-.79,5.27,5.27,0,0,1,1.67-.25,5.12,5.12,0,0,1,1.64.25,3.54,3.54,0,0,1,1.3.77A3.67,3.67,0,0,1,98,9.83a4.89,4.89,0,0,1,.31,1.79v1.54H92a2.25,2.25,0,0,0,.59,1.69,2.39,2.39,0,0,0,1.71.57,5.56,5.56,0,0,0,1.48-.18,5.78,5.78,0,0,0,1.36-.59Zm-1.82-4.65v-.41a2.35,2.35,0,0,0-.11-.71,1.49,1.49,0,0,0-.36-.59,1.81,1.81,0,0,0-.64-.41,2.67,2.67,0,0,0-.95-.15,2.12,2.12,0,0,0-1.6.56A1.88,1.88,0,0,0,92,11.2v.36h4.19Z"/><path class="cls-5" d="M107.39,9.63a2.15,2.15,0,0,0-.51-.15,4.21,4.21,0,0,0-.68-.05,2.21,2.21,0,0,0-.82.15,2,2,0,0,0-.66.43,2.12,2.12,0,0,0-.44.66,2.06,2.06,0,0,0-.16.84v5.55H102V7.72h2V9.08h0a3.23,3.23,0,0,1,1-1.14,2.82,2.82,0,0,1,1.62-.42,5.52,5.52,0,0,1,.71.05,2.9,2.9,0,0,1,.61.14Z"/><polygon class="cls-5" points="24.32 6.28 24.32 4.69 19.72 4.69 19.72 6.28 20.91 6.28 20.91 15.48 19.72 15.48 19.72 17.07 24.32 17.07 24.32 15.48 23.09 15.48 23.09 6.28 24.32 6.28"/></svg>